Coordinates
version=1
nRows=10
nColumns=33
inDegrees=yes

Units are S.I. units (second, meters, Newtons, ...)
Angles are in degrees.

endheader
time	ground_thorax_rot_x	ground_thorax_rot_y	ground_thorax_rot_z	ground_thorax_tx	ground_thorax_ty	ground_thorax_tz	clav_prot_r	clav_elev_r	scapula_abduction_r	scapula_elevation_r	scapula_upward_rot_r	scapula_winging_r	shoulder_elv_r	plane_of_elev_r	axial_rot_r	elbow_flexion_r	pro_sup_r	wrist_flex_r	wrist_dev_r	clav_prot_l	clav_elev_l	scapula_abduction_l	scapula_elevation_l	scapula_upward_rot_l	scapula_winging_l	shoulder_elv_l	plane_of_elev_l	axial_rot_l	elbow_flexion_l	pro_sup_l	wrist_flex_l	wrist_dev_l
      3.80000000	     38.47769685	      5.40182796	      8.26856076	   -125.67106449	    811.90466297	      3.32553320	     15.59032284	     42.36389487	     45.00000000	     45.00000000	    -28.83794369	  -1884.98361882	  -2988.82374022	    145.98667542	   -159.80920505	    732.01312534	     19.66095479	     18.72189460	     10.24814554	      7.52147422	    -45.00000000	    -45.00000000	     45.00000000	    -15.23882990	   1532.72074095	  -1534.53584527	    134.76954340	   -164.32614185	   1085.64347228	     27.52599890	     10.33736551	    -21.72120278
      3.81000000	     38.23975984	      6.10643879	      9.31486567	   -130.60537733	    813.42897243	      3.12186945	     16.63927730	     41.96059584	     45.00000000	     45.00000000	    -30.54709610	  -1885.36333371	  -2988.67132862	    145.86571443	   -159.33411636	    731.92029599	     18.92327154	     18.57944482	      9.82596917	      8.34781413	    -45.00000000	    -45.00000000	     45.00000000	    -16.89525142	   1533.34770807	  -1534.25885734	    134.93742793	   -165.38564062	   1085.81807150	     26.46456178	     10.16985627	    -21.65494176
      3.82000000	     38.13363722	      6.21971079	      9.56753885	   -135.59168501	    814.90476232	      2.91315908	     16.73410436	     41.78832492	     45.00000000	     45.00000000	    -31.34040738	  -1885.69482140	  -2988.50560141	    145.92583020	   -158.78183047	    731.99257860	     18.38810552	     18.61975904	      9.57282175	      8.52549839	    -45.00000000	    -45.00000000	     45.00000000	    -17.52886736	   1533.87964723	  -1534.05843975	    135.05719925	   -166.08515182	   1085.93171788	     25.48891981	     10.11092811	    -21.68345814
      3.83000000	     38.11721258	      5.95729062	      9.38730056	   -140.60947882	    816.32431007	      2.69789804	     16.61356764	     41.76492198	     45.00000000	     45.00000000	    -31.62291768	  -1885.86143841	  -2988.19366520	    146.14119599	   -157.87519448	    732.17829381	     18.25278612	     18.73508074	      9.47176732	      8.57393586	    -45.00000000	    -45.00000000	     45.00000000	    -17.80282400	   1534.26688284	  -1533.79125607	    135.15893226	   -166.38646990	   1086.08801176	     24.75370243	     10.13876431	    -21.75274676
      3.84000000	     37.96794384	      6.41877850	     10.04136925	   -145.64339018	    817.68145416	      2.47977037	     16.93553616	     41.43404923	     45.00000000	     45.00000000	    -32.86164974	  -1886.33954366	  -2988.20464180	    146.03089975	   -157.70708850	    732.07355132	     18.13614629	     18.71365468	      9.06034113	      8.99709888	    -45.00000000	    -45.00000000	     45.00000000	    -18.90200060	   1534.89704660	  -1533.67730729	    135.24067548	   -167.04284705	   1086.09637137	     24.00414245	      9.94350239	    -21.75350973
      3.85000000	     37.89192999	      6.50898590	     10.26934523	   -150.67679162	    818.97062299	      2.25865832	     16.96355851	     41.21920501	     45.00000000	     45.00000000	    -33.70143867	  -1886.70547672	  -2988.12181925	    146.03188595	   -157.07771440	    732.17264540	     18.35865072	     18.77629632	      8.77343606	      9.21552878	    -45.00000000	    -45.00000000	     45.00000000	    -19.65991795	   1535.46963090	  -1533.49260247	    135.29207760	   -167.49678193	   1086.19231020	     23.27133675	      9.84470402	    -21.80078225
      3.86000000	     37.82167952	      6.66074318	     10.45858282	   -155.68768605	    820.18370846	      2.04035490	     16.83142283	     41.10909325	     44.61754004	     45.00000000	    -34.15492674	  -1886.74412924	  -2987.86521597	    146.11960732	   -156.22104003	    732.19869461	     18.89832112	     18.87513759	      8.66000947	      9.38524772	    -45.00000000	    -45.00000000	     45.00000000	    -20.42465436	   1535.78097804	  -1533.31673048	    135.48044992	   -167.73392585	   1086.19520437	     22.65460828	      9.72443251	    -21.81400132
      3.87000000	     37.69682711	      7.06177583	     10.92726933	   -160.66275826	    821.31761099	      1.83217450	     16.78714495	     40.74627105	     44.27982999	     45.00000000	    -35.24003198	  -1886.87672098	  -2987.65185975	    146.09121509	   -155.59702570	    732.28234915	     19.67271710	     18.86718260	      8.20992656	      9.76750139	    -45.00000000	    -44.81948430	     45.00000000	    -21.94406577	   1536.20036227	  -1533.07330574	    135.49597363	   -168.46067802	   1086.29740587	     22.07987396	      9.64017155	    -21.86859448
      3.88000000	     37.63262270	      7.44006978	     11.48477613	   -165.57737052	    822.36069395	      1.64183660	     16.76826919	     40.47005484	     44.07229380	     45.00000000	    -36.25773312	  -1887.07373647	  -2987.46987749	    146.10716052	   -155.12041904	    732.36428798	     20.76417985	     18.88254774	      7.84762113	      9.84760905	    -45.00000000	    -44.30512683	     45.00000000	    -23.64043633	   1536.48089384	  -1532.88958442	    135.55218174	   -169.18823224	   1086.41786540	     21.49568934	      9.48630517	    -21.90412396
      3.89000000	     37.53544544	      8.07954098	     12.35697299	   -170.41919664	    823.30760088	      1.47429360	     16.60636596	     40.17588140	     43.79763232	     45.00000000	    -38.20200438	  -1887.09178028	  -2986.96826785	    146.07243401	   -155.84134185	    732.58932127	     22.40760040	     18.92431385	      7.38392332	      9.87578192	    -45.00000000	    -43.46978473	     45.00000000	    -25.98507517	   1536.68201957	  -1532.70815592	    135.54749175	   -170.53851055	   1086.47810200	     20.73616716	      9.12693698	    -21.90877510
